# xmcd CD database file
#
# Track frame offsets:
#	150
#	42106
#	72649
#	105090
#	139664
#	163119
#	192252
#	218325
#
# Disc length: 3272 seconds
#
# Revision: 0
# Processed by: cddbd v1.5.2PL0 Copyright (c) Steve Scherf et al.
# Submitted via: CDex 1.81
#
DISCID=670cc608
DTITLE=Chet Baker -  Chet in Chicago (The Legacy, Vol. 5)
DYEAR=1986
DGENRE=Jazz
TTITLE0=Old Devil Moon
TTITLE1=It's You or No One
TTITLE2=We'll Be Together Again
TTITLE3=Ornithology
TTITLE4=Crazy Rhythm
TTITLE5=My Funny Valentine
TTITLE6=Sippin' at Bells
TTITLE7=Solar
EXTD=YEAR: 1986
EXTT0=
EXTT1=
EXTT2=
EXTT3=
EXTT4=
EXTT5=
EXTT6=
EXTT7=
PLAYORDER=
